<svg width="35" height="35" viewBox="0 0 35 35" fill="none" xmlns="http://www.w3.org/2000/svg">
<rect width="35" height="35" rx="17.5" fill="#E8AC5D"/>
<path d="M16.1029 25.3018C16.0618 25.3018 16.0206 25.2915 15.9794 25.2709H15.9177C15.8765 25.2503 15.8456 25.2297 15.8251 25.2091L14.1578 23.5419C14.1167 23.5007 14.0961 23.4493 14.0961 23.3875C14.0961 23.3258 14.1167 23.2743 14.1578 23.2331L19.9623 17.4287C19.9829 17.4081 19.9932 17.3875 19.9932 17.3669L14.1578 11.5625C14.1167 11.5213 14.0961 11.4699 14.0961 11.4081C14.0961 11.3464 14.1167 11.2949 14.1578 11.2537L15.8251 9.61737C15.8868 9.53503 15.9794 9.49387 16.1029 9.49387C16.2058 9.49387 16.2985 9.53503 16.3808 9.61737L23.8834 17.0891C24.0069 17.2331 24.0172 17.4184 23.9143 17.6448C23.8937 17.6654 23.8834 17.686 23.8834 17.7066L16.3499 25.2091C16.2882 25.2709 16.2058 25.3018 16.1029 25.3018Z" fill="black"/>
</svg>
