<svg width="29" height="28" viewBox="0 0 29 28" fill="none" xmlns="http://www.w3.org/2000/svg">
<g opacity="0.5" clip-path="url(#clip0_44_75)">
<path d="M20.1802 3.50033H24.8468C25.1563 3.50033 25.453 3.62324 25.6718 3.84203C25.8906 4.06083 26.0135 4.35757 26.0135 4.66699V23.3337C26.0135 23.6431 25.8906 23.9398 25.6718 24.1586C25.453 24.3774 25.1563 24.5003 24.8468 24.5003H3.84684C3.53742 24.5003 3.24068 24.3774 3.02188 24.1586C2.80309 23.9398 2.68018 23.6431 2.68018 23.3337V4.66699C2.68018 4.35757 2.80309 4.06083 3.02188 3.84203C3.24068 3.62324 3.53742 3.50033 3.84684 3.50033H8.51351V1.16699H10.8468V3.50033H17.8468V1.16699H20.1802V3.50033ZM17.8468 5.83366H10.8468V8.16699H8.51351V5.83366H5.01351V10.5003H23.6802V5.83366H20.1802V8.16699H17.8468V5.83366ZM23.6802 12.8337H5.01351V22.167H23.6802V12.8337Z" fill="#3E4958"/>
</g>
<defs>
<clipPath id="clip0_44_75">
<rect width="28" height="28" fill="white" transform="translate(0.346924)"/>
</clipPath>
</defs>
</svg>
