<svg width="30" height="28" viewBox="0 0 30 28" fill="none" xmlns="http://www.w3.org/2000/svg">
<path d="M24.9698 25.667H22.5531V23.3337C22.5531 22.4054 22.1712 21.5152 21.4914 20.8588C20.8116 20.2024 19.8895 19.8337 18.9281 19.8337H11.6781C10.7167 19.8337 9.7947 20.2024 9.11488 20.8588C8.43506 21.5152 8.05314 22.4054 8.05314 23.3337V25.667H5.63647V23.3337C5.63647 21.7866 6.27301 20.3028 7.40604 19.2089C8.53907 18.1149 10.0758 17.5003 11.6781 17.5003H18.9281C20.5305 17.5003 22.0672 18.1149 23.2002 19.2089C24.3333 20.3028 24.9698 21.7866 24.9698 23.3337V25.667ZM15.3031 15.167C14.3511 15.167 13.4083 14.9859 12.5287 14.6341C11.6491 14.2824 10.8498 13.7668 10.1766 13.1167C9.50339 12.4667 8.96936 11.6951 8.60501 10.8458C8.24067 9.9965 8.05314 9.08625 8.05314 8.16699C8.05314 7.24774 8.24067 6.33749 8.60501 5.48821C8.96936 4.63893 9.50339 3.86725 10.1766 3.21724C10.8498 2.56723 11.6491 2.05162 12.5287 1.69984C13.4083 1.34805 14.3511 1.16699 15.3031 1.16699C17.226 1.16699 19.07 1.90449 20.4297 3.21724C21.7893 4.53 22.5531 6.31048 22.5531 8.16699C22.5531 10.0235 21.7893 11.804 20.4297 13.1167C19.07 14.4295 17.226 15.167 15.3031 15.167ZM15.3031 12.8337C16.585 12.8337 17.8144 12.342 18.7208 11.4668C19.6272 10.5917 20.1365 9.40467 20.1365 8.16699C20.1365 6.92932 19.6272 5.74233 18.7208 4.86716C17.8144 3.99199 16.585 3.50033 15.3031 3.50033C14.0213 3.50033 12.7919 3.99199 11.8855 4.86716C10.979 5.74233 10.4698 6.92932 10.4698 8.16699C10.4698 9.40467 10.979 10.5917 11.8855 11.4668C12.7919 12.342 14.0213 12.8337 15.3031 12.8337Z" fill="#3E4958"/>
</svg>
