<svg width="54" height="81" viewBox="0 0 54 81" fill="none" xmlns="http://www.w3.org/2000/svg">
<g clip-path="url(#clip0_5_2303)">
<path d="M50.1598 73.7463C50.5619 74.6686 51.0765 75.4335 51.2256 76.2574C51.3364 76.8299 51.3186 77.4199 51.1736 77.9847C51.0285 78.5495 50.7598 79.0751 50.3869 79.5234C50.014 79.9717 49.5461 80.3315 49.0171 80.5769C48.4881 80.8223 47.9112 80.9471 47.3281 80.9423C40.0899 80.9845 32.8517 80.9732 25.6135 80.9423C24.7795 80.9427 23.9667 80.6793 23.2915 80.1899C22.6162 79.7005 22.113 79.0101 21.8538 78.2174C21.5759 77.4508 21.5464 76.6161 21.7695 75.8317C21.9926 75.0474 22.4569 74.3532 23.0967 73.8475C23.6872 73.3891 23.6591 73.0039 23.4679 72.419C22.81 70.4382 21.5703 68.7017 19.9106 67.436C16.9383 65.1821 14.3105 62.5069 12.11 59.4948C10.2513 56.9921 7.87509 55.5917 4.79871 55.2768C1.91637 54.9562 -0.0745585 52.5856 0.00136674 49.6864C0.0744799 46.9166 2.251 44.7316 5.12491 44.5094C9.75635 44.1439 13.9379 45.4374 17.8157 47.8839C18.0969 48.0695 18.4118 48.2438 18.9405 48.556V47.4143C18.9405 44.2845 18.9152 41.1575 18.9686 38.0305C18.9686 37.2178 18.6874 36.9057 17.9591 36.6245C11.4633 34.1555 7.27331 29.5325 5.86729 22.7358C3.65702 12.1962 10.5943 2.01946 20.9764 0.281614C31.5019 -1.48435 41.2231 5.34329 42.9553 15.8913C43.799 20.9979 42.6095 25.7334 39.5809 29.9515C39.3222 30.3171 39.0522 30.6742 38.6417 31.2366C41.8896 30.5926 44.187 31.6078 45.5958 34.5154C45.8602 34.4086 46.1133 34.3214 46.3523 34.2117C49.8842 32.6061 53.9448 35.0554 53.9701 38.9472C54.0207 47.0262 53.9701 55.108 53.9504 63.1899C53.9439 66.4462 52.9389 69.6223 51.0709 72.2896C50.725 72.8155 50.4044 73.3582 50.1598 73.7463ZM51.2593 51.5508H51.3015C51.3015 47.5099 51.3015 43.469 51.3015 39.4281C51.3015 38.4945 51.0793 37.6818 50.351 37.0772C49.9701 36.7508 49.5052 36.538 49.0091 36.4633C48.5131 36.3885 48.0061 36.4548 47.5459 36.6545C47.0858 36.8543 46.6911 37.1794 46.4069 37.5927C46.1228 38.0061 45.9606 38.4911 45.9389 38.9922C45.8967 40.2914 45.9389 41.5934 45.9108 42.8925C45.8827 43.9583 45.3484 44.5601 44.5048 44.4926C43.5487 44.4195 43.1972 43.7952 43.2028 42.9038C43.2028 42.3414 43.2028 41.7789 43.2028 41.2165C43.2028 39.5996 43.2281 37.9827 43.1887 36.3686C43.1915 35.7991 43.0089 35.2442 42.6685 34.7876C42.3281 34.3311 41.8484 33.9977 41.3019 33.8377C40.177 33.5003 38.9116 33.863 38.3436 34.8698C38.0233 35.4868 37.8474 36.1685 37.829 36.8635C37.7531 38.5114 37.829 40.1676 37.7812 41.8183C37.7923 41.9969 37.7653 42.1757 37.702 42.343C37.6386 42.5103 37.5403 42.6622 37.4137 42.7886C37.2871 42.915 37.135 43.0129 36.9675 43.0759C36.8001 43.1389 36.6212 43.1656 36.4426 43.154C35.689 43.154 35.2307 42.6507 35.1238 41.8914C35.0923 41.5775 35.082 41.2619 35.0929 40.9466C35.0929 39.0822 35.0929 37.2206 35.0929 35.3591C35.0929 33.4975 34.0608 32.398 32.4017 32.4064C30.7426 32.4148 29.7528 33.5312 29.7444 35.39C29.7444 37.0069 29.7444 38.6238 29.7444 40.2408C29.7444 41.1912 29.1819 41.7874 28.3805 41.7846C27.5791 41.7818 27.0729 41.1997 27.0223 40.2267C27.0082 39.9455 27.0223 39.6643 27.0223 39.3831V19.7831C27.0364 19.3976 27.0252 19.0115 26.9886 18.6274C26.9081 18.0309 26.6403 17.4754 26.2239 17.0408C25.8075 16.6062 25.2639 16.315 24.6714 16.209C24.0929 16.1205 23.5015 16.2312 22.9941 16.5229C22.4867 16.8147 22.0936 17.2702 21.8791 17.8147C21.7016 18.3819 21.6235 18.9756 21.6485 19.5694C21.6288 28.987 21.6316 38.4101 21.6091 47.8248C21.6433 48.4528 21.5544 49.0813 21.3476 49.6752C20.639 51.3258 18.8168 51.7111 17.0789 50.5975C13.6313 48.3929 9.98412 46.9137 5.78855 47.1865C3.99166 47.3018 2.83028 48.2467 2.74873 49.7623C2.66437 51.3371 3.74982 52.4619 5.58609 52.67C9.09552 53.0665 11.7726 54.7959 14.0222 57.487C16.1936 60.1034 18.5536 62.5574 21.0833 64.8293C23.4144 66.8905 25.3294 69.1008 26.1871 72.1181C26.3446 72.6805 26.5752 72.9055 27.1995 72.9055C33.7375 72.883 40.2755 72.9055 46.8107 72.883C46.9751 72.8861 47.1385 72.8567 47.2915 72.7964C47.4445 72.736 47.584 72.646 47.7021 72.5315C49.6958 69.7194 51.2959 66.7471 51.2734 63.1505C51.2396 59.2839 51.2593 55.4174 51.2593 51.5508ZM18.9545 33.9896C18.9545 32.8873 18.9208 31.8103 18.9545 30.7361C18.9827 30.0387 18.7774 29.6534 18.1306 29.2485C13.9013 26.5911 11.812 22.7049 12.2591 17.7163C12.7034 12.8261 15.3523 9.31671 19.9303 7.51981C24.3846 5.77072 28.6055 6.52435 32.2499 9.62322C38.6248 15.0448 37.6546 25.0895 30.4277 29.3441C30.1503 29.5465 29.8932 29.7753 29.66 30.0274L29.84 30.3086C31.7718 29.406 33.6503 29.4903 35.4331 30.5533C40.7057 25.9584 42.0386 17.5054 38.5432 11.0883C35.0197 4.6206 27.2641 1.24614 20.3296 3.15271C12.6752 5.25893 7.87509 11.8785 8.15629 19.651C8.415 26.906 13.9772 32.7579 18.9545 33.9896ZM29.7331 26.4336C32.9417 24.5833 34.5558 19.8056 33.3466 16.1219C31.8759 11.6226 27.8294 8.97927 23.2232 9.477C18.7999 9.94661 15.3748 13.5432 14.9052 18.0622C14.5481 21.5041 16.7696 25.6097 18.9602 26.3324C18.9602 23.8269 18.9602 21.3354 18.9602 18.8439C18.9413 17.6393 19.3453 16.4662 20.1019 15.5285C20.7739 14.6609 21.6978 14.0224 22.747 13.7007C23.7963 13.379 24.9193 13.3898 25.9622 13.7316C27.0324 14.1029 27.9649 14.79 28.6367 15.7022C29.3084 16.6144 29.6877 17.7089 29.7247 18.8411C29.764 21.3157 29.7331 23.8072 29.7331 26.4336ZM36.4511 78.2399C39.9577 78.2399 43.4671 78.2399 46.9737 78.2399C47.8764 78.2399 48.4923 77.9109 48.5907 76.9689C48.6778 76.159 48.0283 75.5628 46.9991 75.5628C39.9839 75.5516 32.9679 75.5516 25.9509 75.5628C25.5853 75.5628 25.0764 75.6303 24.888 75.8666C24.5675 76.2485 24.3984 76.7348 24.4127 77.2332C24.5252 77.9953 25.1748 78.2287 25.9256 78.2259C29.435 78.223 32.9416 78.2287 36.4511 78.2343V78.2399Z" fill="white"/>
</g>
<defs>
<clipPath id="clip0_5_2303">
<rect width="53.9969" height="80.97" fill="white" transform="translate(0.00146484)"/>
</clipPath>
</defs>
</svg>
