<svg width="29" height="28" viewBox="0 0 29 28" fill="none" xmlns="http://www.w3.org/2000/svg">
<g opacity="0.5" clip-path="url(#clip0_44_62)">
<path d="M25.1187 23.3337C25.1187 23.6431 24.9957 23.9398 24.777 24.1586C24.5582 24.3774 24.2614 24.5003 23.952 24.5003H5.28532C4.9759 24.5003 4.67915 24.3774 4.46036 24.1586C4.24157 23.9398 4.11865 23.6431 4.11865 23.3337V11.072C4.11853 10.8942 4.15904 10.7187 4.23709 10.559C4.31514 10.3993 4.42866 10.2595 4.56899 10.1503L13.9023 2.89132C14.1071 2.732 14.3592 2.64551 14.6187 2.64551C14.8781 2.64551 15.1302 2.732 15.335 2.89132L24.6683 10.1503C24.8087 10.2595 24.9222 10.3993 25.0002 10.559C25.0783 10.7187 25.1188 10.8942 25.1187 11.072V23.3337ZM22.7853 22.167V11.6413L14.6187 5.28998L6.45199 11.6413V22.167H22.7853Z" fill="#3E4958"/>
</g>
<defs>
<clipPath id="clip0_44_62">
<rect width="28" height="28" fill="white" transform="translate(0.618652)"/>
</clipPath>
</defs>
</svg>
