<svg width="19" height="19" viewBox="0 0 19 19" fill="none" xmlns="http://www.w3.org/2000/svg">
<g clip-path="url(#clip0_56_266)">
<path d="M18.9966 9.4911C18.9845 10.5328 18.9823 11.5745 18.9581 12.6151C18.9393 13.4088 18.9118 14.2014 18.72 14.9796C18.4323 16.1525 17.8381 17.1248 16.8647 17.8556C16.1873 18.3492 15.4021 18.6745 14.5741 18.8047C13.7308 18.9569 12.8776 18.9745 12.0255 18.9778C10.1361 18.9844 8.24594 18.98 6.35507 18.9646C5.5569 18.9769 4.76012 18.8937 3.98174 18.7165C3.35511 18.5711 2.76134 18.3093 2.23124 17.9449C1.6903 17.5623 1.23245 17.074 0.885286 16.5097C0.550879 15.9474 0.318391 15.3306 0.198531 14.6875C0.094755 14.1576 0.0412381 13.6191 0.0386927 13.0792C0.0188507 11.127 0.00341797 9.17473 0.00341797 7.2236C0.00341797 6.47181 0.043102 5.71891 0.100423 4.96822C0.154568 4.10671 0.412213 3.27031 0.852216 2.52765C1.39091 1.61743 2.21686 0.912076 3.20019 0.522507C4.06111 0.174169 4.96392 0.0518097 5.88107 0.0385817C7.61614 0.0128606 9.35158 0 11.0874 0C11.9288 0 12.767 0.0213118 13.6018 0.0639354C14.5906 0.110233 15.5463 0.3307 16.4106 0.825649C16.8415 1.07585 17.2302 1.39244 17.5625 1.76374C18.4245 2.70733 18.7916 3.85817 18.8919 5.0972C18.9459 5.7586 18.9614 6.42 18.9724 7.0814C18.9856 7.88169 18.9724 8.68309 18.9724 9.48339L18.9966 9.4911ZM17.2836 9.49661H17.2704C17.2704 8.94545 17.2704 8.39428 17.2704 7.84311C17.2594 6.86755 17.277 5.88977 17.1513 4.91972C17.0882 4.29082 16.8659 3.68837 16.5054 3.16921C16.0104 2.49017 15.3336 2.09333 14.5212 1.90924C13.8941 1.78357 13.2558 1.72299 12.6163 1.72846C11.5441 1.70935 10.4719 1.70017 9.39972 1.7009C8.03172 1.7009 6.66372 1.67665 5.29793 1.78358C4.79629 1.81302 4.30253 1.92204 3.83513 2.10656C3.45405 2.25878 3.10715 2.48547 2.81472 2.77336C2.52228 3.06125 2.2902 3.40456 2.13203 3.78321C1.90205 4.33338 1.77825 4.92209 1.76715 5.51829C1.73298 6.4663 1.70983 7.4143 1.70653 8.36341C1.70653 9.78873 1.71424 11.2152 1.73078 12.6416C1.72108 13.2708 1.78022 13.8992 1.90715 14.5155C1.99509 14.9409 2.16225 15.3458 2.39989 15.7094C2.8657 16.3979 3.57925 16.88 4.39181 17.0553C5.02394 17.1927 5.66968 17.2574 6.31649 17.2482C8.31612 17.2622 10.3161 17.2651 12.3165 17.257C12.9835 17.2672 13.6501 17.2181 14.3084 17.1104C14.8436 17.0277 15.3527 16.8233 15.7966 16.513C16.4811 16.0147 16.8813 15.3335 17.0665 14.5155C17.185 13.9292 17.2433 13.3323 17.2406 12.7342C17.2638 11.655 17.2704 10.5758 17.2836 9.49661Z" fill="black"/>
<path d="M9.4834 14.3711C8.51914 14.3703 7.57677 14.0837 6.77527 13.5476C5.97378 13.0115 5.34912 12.2499 4.98017 11.359C4.61121 10.4682 4.51452 9.48793 4.70229 8.54213C4.89006 7.59633 5.35388 6.72739 6.03517 6.04501C6.71647 5.36264 7.58468 4.89745 8.53018 4.70819C9.47568 4.51892 10.4561 4.61407 11.3475 4.98162C12.239 5.34916 13.0015 5.97262 13.5389 6.77327C14.0763 7.57391 14.3643 8.51584 14.3667 9.48009C14.3682 10.1222 14.2429 10.7582 13.9981 11.3517C13.7533 11.9453 13.3938 12.4847 12.9401 12.9391C12.4865 13.3935 11.9476 13.7538 11.3545 13.9996C10.7613 14.2453 10.1255 14.3716 9.4834 14.3711ZM6.32521 9.48891C6.32459 10.1162 6.51044 10.7295 6.85916 11.2509C7.20788 11.7723 7.70372 12.1782 8.28368 12.4172C8.86364 12.6561 9.50155 12.7173 10.1164 12.5929C10.7312 12.4685 11.2951 12.1641 11.7365 11.7185C12.178 11.2729 12.477 10.7061 12.5956 10.0901C12.7141 9.47417 12.6469 8.83687 12.4025 8.25919C12.1581 7.68152 11.7474 7.18954 11.2228 6.84577C10.6981 6.502 10.0831 6.32196 9.45584 6.32851C8.62336 6.33808 7.82813 6.67505 7.24223 7.26652C6.65633 7.85799 6.32689 8.65638 6.32521 9.48891Z" fill="black"/>
<path d="M13.4177 4.42377C13.4169 4.19785 13.483 3.97676 13.6078 3.78844C13.7326 3.60013 13.9105 3.45307 14.1189 3.36586C14.3273 3.27865 14.5569 3.25522 14.7786 3.29852C15.0003 3.34181 15.2043 3.4499 15.3645 3.60911C15.5248 3.76832 15.6343 3.97148 15.6791 4.19292C15.7239 4.41435 15.702 4.64409 15.6162 4.85308C15.5304 5.06207 15.3845 5.24092 15.1971 5.36699C15.0096 5.49307 14.789 5.56072 14.5631 5.56138C14.2611 5.55995 13.9717 5.43988 13.7575 5.22706C13.5432 5.01425 13.4212 4.72574 13.4177 4.42377Z" fill="black"/>
</g>
<defs>
<clipPath id="clip0_56_266">
<rect width="18.9932" height="18.98" fill="white" transform="translate(0.00341797)"/>
</clipPath>
</defs>
</svg>
