<svg width="63" height="72" viewBox="0 0 63 72" fill="none" xmlns="http://www.w3.org/2000/svg">
<path d="M20.9427 0C22.2515 0.000139861 23.5457 0.272317 24.7422 0.799029C25.9387 1.32574 27.011 2.09533 27.89 3.0583C28.7691 4.02127 29.4355 5.15631 29.8465 6.39042C30.2574 7.62453 30.4037 8.9304 30.276 10.224C29.7041 16.6198 28.9607 23.0155 28.6747 29.4339C28.4231 34.8526 28.5604 40.3055 28.8349 45.7242C29.1094 51.1429 29.7728 56.4822 30.2875 61.8555C30.4825 64.0298 29.9033 66.2032 28.651 67.9971C27.3986 69.791 25.5524 71.0918 23.4338 71.6729C21.3152 72.254 19.0585 72.0786 17.0567 71.1773C15.0549 70.276 13.4348 68.7058 12.4787 66.7403C11.6459 64.9691 11.3556 62.994 11.6437 61.0603C13.2477 49.6107 13.7227 38.0329 13.062 26.4916C12.7189 21.1297 12.1698 15.7905 11.5522 10.4512C11.4116 9.13916 11.5492 7.81238 11.9562 6.55631C12.3631 5.30024 13.0303 4.14271 13.9149 3.15823C14.7994 2.17374 15.8818 1.38412 17.0922 0.840179C18.3026 0.29624 19.6142 0.0100397 20.9427 0ZM13.7254 62.5712C13.7645 63.1667 13.8447 63.7588 13.9656 64.3433C14.3973 66.14 15.5128 67.7008 17.078 68.6984C18.6433 69.6959 20.5367 70.0527 22.361 69.6939C24.1815 69.2894 25.7814 68.2179 26.8414 66.6934C27.9015 65.1688 28.3438 63.3034 28.08 61.4692C27.4394 55.3007 26.7646 49.1095 26.4558 42.9183C26.009 32.0849 26.5488 21.2336 28.0685 10.4967C28.3144 9.13473 28.1427 7.73081 27.5758 6.46689C27.0088 5.20297 26.0727 4.13731 24.8888 3.40802C23.785 2.63731 22.4769 2.20686 21.1282 2.17049C19.7794 2.13412 18.4497 2.49344 17.3055 3.20353C14.3316 4.95298 13.4852 7.67939 13.8169 10.9852C14.4117 16.9151 15.0751 22.8564 15.3724 28.7977C15.7826 37.3809 15.534 45.9826 14.629 54.5282C14.3545 57.1297 14.0228 59.7539 13.7254 62.5712Z" fill="#D8AA68"/>
<path d="M34.4854 35.0571C34.4231 27.4597 33.9037 19.8728 32.9298 12.337C32.4429 10.0636 32.6175 7.69947 33.4331 5.52094C34.366 3.47435 36.0056 1.82697 38.0552 0.876823C40.1049 -0.0733229 42.4293 -0.26348 44.6079 0.340753C46.7197 0.914457 48.5624 2.20466 49.8161 3.98728C51.0697 5.76991 51.6552 7.93235 51.4707 10.099C51.3563 11.235 51.2076 12.4506 51.0589 13.632C50.9674 14.3591 50.6357 14.9271 49.8007 14.8362C48.9658 14.7453 48.7713 14.1205 48.8743 13.3821C49.0001 12.4165 49.1373 11.4622 49.2746 10.508C49.4309 9.51612 49.3771 8.50275 49.1165 7.53272C48.856 6.56269 48.3944 5.65736 47.7614 4.87465C47.1283 4.09194 46.3378 3.44909 45.4402 2.98723C44.5427 2.52537 43.558 2.25467 42.5491 2.19244C41.5808 2.12749 40.6094 2.25936 39.6941 2.57997C38.7789 2.90058 37.9391 3.40321 37.2261 4.05712C36.5131 4.71104 35.9419 5.5025 35.5474 6.38313C35.1528 7.26376 34.9432 8.21506 34.9315 9.17887C34.9315 11.3146 35.4004 13.4502 35.5949 15.5973C35.9151 19.2893 36.2582 22.9927 36.4756 26.7074C36.8702 34.0854 36.7862 41.4809 36.2239 48.8482C35.9151 53.2331 35.3432 57.6068 34.8628 61.9804C34.7073 63.7016 35.183 65.4207 36.2025 66.8212C37.222 68.2216 38.7166 69.2091 40.4111 69.6018C42.1055 69.9946 43.8858 69.7661 45.4241 68.9585C46.9624 68.1509 48.1552 66.8185 48.7828 65.2066C49.3029 63.5948 49.3936 61.8766 49.0458 60.2196C47.4596 48.1698 47.0421 35.9965 47.7991 23.8674C47.9135 21.9362 48.1308 20.0164 48.2795 18.0852C48.3481 17.3354 48.6455 16.7787 49.4233 16.8355C50.2011 16.8923 50.4641 17.5058 50.4184 18.2442C50.1439 23.1972 49.7435 28.1502 49.6292 33.1145C49.4473 42.403 50.0134 51.691 51.322 60.8898C52.0426 66.1722 48.9315 70.8412 44.0818 71.7841C42.5782 72.1133 41.0163 72.0713 39.533 71.6616C38.0496 71.2519 36.6901 70.4871 35.5735 69.4342C34.457 68.3813 33.6175 67.0725 33.1287 65.6224C32.6398 64.1724 32.5166 62.6254 32.7697 61.117C33.9159 52.4771 34.489 43.7717 34.4854 35.0571Z" fill="#D8AA68"/>
<path d="M57.1895 6.64563H54.9019C54.1813 6.64563 53.6323 6.37299 53.6323 5.57778C53.6323 4.78258 54.1699 4.50994 54.8905 4.44178H57.1895C57.1895 3.30577 57.1895 2.37425 57.1895 1.38593C57.1895 0.397602 57.6127 0 58.3333 0C59.0539 0 59.397 0.658883 59.4085 1.38593C59.4085 2.37425 59.4085 3.37393 59.4085 4.47586H61.696C62.4166 4.47586 62.9542 4.78258 62.9657 5.61187C62.9771 6.44115 62.4281 6.67971 61.7075 6.67971C60.9869 6.67971 60.2091 6.67971 59.4199 6.67971V7.73619C59.4199 23.5418 59.4199 39.3474 59.4199 55.153C59.37 55.4508 59.4246 55.7566 59.5745 56.0192C59.7244 56.2818 59.9605 56.4854 60.2434 56.5958C60.8757 56.8953 61.4074 57.3699 61.7747 57.9624C62.1419 58.5548 62.3291 59.24 62.3137 59.9356C62.3137 62.6507 62.3137 65.3771 62.3137 68.0921C62.2958 69.1309 61.8692 70.1214 61.1253 70.8517C60.3814 71.5821 59.3793 71.9942 58.3333 72C57.8163 72.0121 57.3021 71.9219 56.8205 71.7348C56.339 71.5476 55.8997 71.2673 55.5282 70.91C55.1568 70.5527 54.8605 70.1256 54.6568 69.6535C54.4531 69.1815 54.3459 68.6739 54.3415 68.1603C54.3415 65.4112 54.3415 62.662 54.3415 59.9129C54.329 59.1813 54.5412 58.4633 54.9499 57.8544C55.3586 57.2456 55.9443 56.7749 56.6291 56.5049C56.8419 56.4264 57.0208 56.2771 57.1355 56.0825C57.2501 55.8878 57.2935 55.6598 57.2581 55.437C57.2581 52.029 57.2581 48.4961 57.2581 45.0312V6.64563H57.1895ZM60.0719 64.0593C60.0719 62.7416 60.0719 61.4352 60.0719 60.1174C60.0719 59.6444 59.8827 59.1907 59.5459 58.8562C59.2091 58.5218 58.7524 58.3339 58.2761 58.3339C57.7999 58.3339 57.3431 58.5218 57.0063 58.8562C56.6696 59.1907 56.4804 59.6444 56.4804 60.1174C56.4804 62.7453 56.4804 65.3695 56.4804 67.9899C56.4849 68.2241 56.5358 68.4552 56.6302 68.6698C56.7246 68.8845 56.8607 69.0786 57.0306 69.2411C57.2005 69.4035 57.401 69.5311 57.6206 69.6166C57.8402 69.7021 58.0746 69.7438 58.3104 69.7393C58.5463 69.7349 58.7789 69.6843 58.995 69.5905C59.2112 69.4968 59.4066 69.3616 59.5702 69.1929C59.7337 69.0241 59.8622 68.825 59.9483 68.6069C60.0344 68.3888 60.0764 68.156 60.0719 67.9217C60.0947 66.6153 60.0719 65.3316 60.0719 64.0593Z" fill="#D8AA68"/>
<path d="M3.5915 6.64564C2.7451 6.64564 2.00163 6.64564 1.30392 6.64564C0.606209 6.64564 0 6.38436 0 5.5778C0 4.77124 0.54902 4.54404 1.26961 4.54404H3.55719C3.55719 3.52163 3.55719 2.53331 3.55719 1.55634C3.56863 0.738419 3.78595 0.113616 4.65523 1.53668e-05C5.52451 -0.113585 5.79902 0.488497 5.79902 1.48818C5.79902 2.48787 5.81046 3.40803 5.81046 4.54404H8.15523C8.88725 4.54404 9.42484 4.87348 9.42484 5.68004C9.42484 6.4866 8.87582 6.73652 8.14379 6.73652H5.85621V42.7479C5.9216 43.1268 5.89811 43.5155 5.78758 43.8839C5.57026 44.2588 5.10131 44.7813 4.79248 44.7586C4.48366 44.7359 3.95752 44.2474 3.64869 43.8612C3.33987 43.4749 3.64869 43.2023 3.64869 42.8501V6.64564H3.5915Z" fill="#D8AA68"/>
<path d="M0.697804 64.0258C0.697804 62.7535 0.697804 61.4698 0.697804 60.1975C0.663288 59.3962 0.870119 58.6029 1.29186 57.9189C1.71361 57.235 2.33111 56.6914 3.06545 56.3578C3.21304 56.2496 3.33399 56.1095 3.41919 55.9482C3.50438 55.7868 3.5516 55.6084 3.55728 55.4263C3.55728 53.0634 3.55728 50.6891 3.55728 48.3149C3.57423 48.0517 3.64723 47.7952 3.77145 47.5621C3.89567 47.3291 4.06828 47.1249 4.27787 46.963C4.97558 46.5314 5.71905 47.1789 5.73048 48.1899C5.73048 50.4619 5.73048 52.7339 5.73048 55.006C5.67612 55.3321 5.73622 55.667 5.9007 55.9544C6.06519 56.2419 6.32409 56.4645 6.63408 56.585C7.26237 56.8793 7.79127 57.3482 8.15669 57.9349C8.52211 58.5216 8.70837 59.201 8.6929 59.8908C8.6929 62.6285 8.6929 65.3777 8.6929 68.1268C8.6839 69.1534 8.26852 70.1352 7.53654 70.8601C6.80456 71.585 5.81478 71.9947 4.78114 72.0006C3.73036 72.025 2.71274 71.6345 1.95152 70.9146C1.1903 70.1948 0.747653 69.2045 0.720679 68.1609C0.66349 66.7863 0.720679 65.4118 0.720679 64.0372L0.697804 64.0258ZM6.48539 64.0258C6.48539 62.7194 6.48539 61.4017 6.48539 60.0953C6.50402 59.8534 6.47342 59.6103 6.39541 59.3804C6.3174 59.1506 6.19357 58.9387 6.03132 58.7574C5.86907 58.5761 5.67171 58.4291 5.45102 58.3252C5.23034 58.2213 4.99084 58.1627 4.74682 58.1527C4.48504 58.1525 4.22618 58.2074 3.98731 58.3138C3.74844 58.4202 3.53498 58.5756 3.36099 58.7699C3.187 58.9642 3.05643 59.1928 2.97789 59.4409C2.89935 59.6889 2.87462 59.9506 2.90532 60.2089C2.90532 62.7687 2.90532 65.3285 2.90532 67.8883C2.88669 68.1385 2.91915 68.3899 3.00074 68.6274C3.08234 68.8648 3.2114 69.0835 3.38017 69.2702C3.54894 69.4569 3.75395 69.6079 3.9829 69.714C4.21185 69.8201 4.46001 69.8791 4.71251 69.8876C4.96472 69.8795 5.21256 69.8201 5.44066 69.7129C5.66876 69.6057 5.87224 69.4531 6.03848 69.2645C6.20472 69.076 6.33018 68.8555 6.40705 68.6168C6.48393 68.3781 6.51059 68.1263 6.48539 67.8769C6.50826 66.5818 6.48539 65.3322 6.48539 64.0826V64.0258Z" fill="#D8AA68"/>
<path d="M46.2777 38.3748C46.2777 39.6245 46.2777 40.8741 46.2777 42.1237C46.2637 43.1974 45.8342 44.2247 45.0782 44.9924C44.3223 45.7601 43.2978 46.2095 42.2173 46.2474C41.1681 46.3139 40.1341 45.9713 39.3353 45.2924C38.5364 44.6135 38.0357 43.652 37.9395 42.6121C37.7565 39.7523 37.7565 36.8838 37.9395 34.0239C38.0328 32.9818 38.5348 32.0178 39.3371 31.3399C40.1395 30.662 41.1781 30.3244 42.2287 30.4001C43.2937 30.4398 44.3039 30.8793 45.0554 31.6299C45.8069 32.3805 46.2437 33.3863 46.2777 34.4443C46.2777 35.7507 46.2777 37.0684 46.2777 38.3748ZM40.0327 37.9091C40.0327 39.3405 40.0327 40.715 40.0327 42.0669C40.026 42.5748 40.2177 43.0655 40.5674 43.4361C40.9171 43.8067 41.3977 44.0285 41.9085 44.0549C42.4159 44.1128 42.9259 43.9701 43.3283 43.6576C43.7306 43.3452 43.993 42.888 44.0588 42.3849C44.1846 40.9081 44.0588 39.42 44.0588 37.9091H40.0327ZM44.1274 35.6371C44.2304 34.5011 44.1274 33.4673 43.0637 32.8766C42.7116 32.6597 42.2981 32.5623 41.8855 32.5992C41.4729 32.6361 41.0835 32.8052 40.7761 33.0811C40.4227 33.3936 40.1717 33.8042 40.0555 34.2598C39.9393 34.7154 39.9632 35.1951 40.1242 35.6371H44.1274Z" fill="#D8AA68"/>
<path d="M25.1633 38.3514C25.1633 39.5897 25.1633 40.8393 25.1633 42.0889C25.1698 43.1507 24.7681 44.1749 24.0402 44.9526C23.3123 45.7303 22.3131 46.2029 21.2464 46.2739C20.1797 46.3449 19.1259 46.0091 18.3001 45.3348C17.4742 44.6605 16.9385 43.6987 16.8022 42.6455C16.6743 41.0889 16.6323 39.5264 16.6764 37.9652C16.6343 36.6577 16.6725 35.3488 16.7908 34.046C16.9146 32.9944 17.4409 32.0305 18.2607 31.3538C19.0804 30.6771 20.1308 30.3394 21.1943 30.4107C22.2715 30.4691 23.2847 30.9371 24.0237 31.7176C24.7627 32.4981 25.1708 33.5312 25.1633 34.6026C25.1633 35.8522 25.1633 37.1018 25.1633 38.3514ZM18.9068 37.9084C18.9068 39.3738 18.9068 40.737 18.9068 42.1002C18.9206 42.5893 19.1125 43.0569 19.4469 43.4162C19.7813 43.7755 20.2355 44.0021 20.7254 44.0542C20.9725 44.0895 21.2242 44.0761 21.4661 44.0146C21.708 43.9532 21.9353 43.845 22.1351 43.6962C22.3348 43.5475 22.503 43.361 22.6301 43.1476C22.7572 42.9341 22.8407 42.6979 22.8757 42.4524C23.013 40.9529 22.8757 39.4306 22.8757 37.9084H18.9068ZM22.9672 35.6364C23.1078 35.1451 23.092 34.6228 22.9221 34.1408C22.7521 33.6588 22.4363 33.2408 22.0179 32.944C21.6779 32.7117 21.2712 32.595 20.8589 32.6114C20.4465 32.6278 20.0505 32.7764 19.7303 33.0349C19.3377 33.3314 19.0521 33.746 18.916 34.2168C18.78 34.6877 18.8008 35.1896 18.9754 35.6477L22.9672 35.6364Z" fill="#D8AA68"/>
</svg>
