<svg width="73" height="66" viewBox="0 0 73 66" fill="none" xmlns="http://www.w3.org/2000/svg">
<path d="M40.5658 37.7821L32.755 32.1091C31.7638 31.4967 30.9058 30.6946 30.2313 29.7497C29.5567 28.8048 29.0792 27.7362 28.8267 26.6062C28.6456 25.1452 28.8992 23.6635 29.5564 22.3433C30.2136 21.023 31.2457 19.9217 32.5259 19.1746C32.6552 19.1155 32.7959 19.085 32.9382 19.085C33.0806 19.085 33.2212 19.1155 33.3505 19.1746C37.7255 22.0451 42.0661 24.9497 46.4181 27.843C46.4181 27.843 46.4181 27.843 46.4983 28.0131L44.0589 29.2385L48.8347 32.6423L50.2434 33.6635C53.1066 35.7852 53.1753 38.9734 50.4152 41.288L39.787 50.1493L39.1914 50.6939L42.2493 51.7718C49.121 54.041 55.8781 56.3896 62.6696 58.7383C63.0486 58.9271 63.473 59.0081 63.8956 58.972C64.3183 58.9359 64.7225 58.7843 65.0633 58.534C65.8724 58.0092 66.7097 57.5282 67.5714 57.0931C67.8802 56.8913 68.2268 56.7532 68.5905 56.6867C68.9543 56.6203 69.3278 56.6269 69.6889 56.7063C70.05 56.7857 70.3913 56.9362 70.6925 57.1488C70.9938 57.3614 71.2488 57.6319 71.4425 57.944C71.6318 58.2577 71.7549 58.6062 71.8042 58.9683C71.8536 59.3305 71.8283 59.6988 71.7298 60.051C71.6313 60.4032 71.4617 60.7319 71.2311 61.0172C71.0006 61.3025 70.7141 61.5385 70.3888 61.7109C68.8999 62.63 67.3996 63.5036 65.8993 64.3886C65.4834 64.6478 65.0122 64.8074 64.5231 64.8547C64.034 64.9019 63.5406 64.8356 63.0819 64.6609C50.2701 60.2662 37.443 55.8866 24.6006 51.5222L3.21827 44.2493C2.59939 44.0949 2.05406 43.7319 1.67582 43.2226C1.29759 42.7133 1.11003 42.0895 1.14532 41.4582C1.16818 40.8599 1.39803 40.2876 1.79631 39.8372C2.1946 39.3868 2.73709 39.0859 3.3328 38.9848C3.87232 38.9065 4.42299 38.9611 4.93619 39.1436C12.8272 41.8099 20.7067 44.499 28.5976 47.1539C28.7649 47.2159 28.9438 47.2409 29.1219 47.2272C29.2999 47.2135 29.4728 47.1614 29.6284 47.0745C33.2245 44.0905 36.7978 41.0725 40.3596 37.9977C40.4344 37.9317 40.5034 37.8596 40.5658 37.7821Z" stroke="#D8AA68" stroke-width="2" stroke-miterlimit="10"/>
<path d="M50.186 20.4795C50.3693 19.5945 50.5754 18.8116 50.667 18.0061C50.667 17.8018 50.4265 17.4841 50.2089 17.3366C48.5941 16.202 46.9563 15.1695 45.3186 14.0917L44.2764 13.3655C46.7158 12.4919 48.6399 10.7105 51.3084 10.8807C52.2045 10.9025 53.0808 11.1465 53.8572 11.5905C54.6335 12.0345 55.285 12.6643 55.7521 13.4222C56.4727 14.6194 57.1043 15.867 57.6418 17.1551C58.0651 18.4378 58.0651 19.8208 57.6418 21.1035L56.8515 24.825C58.2139 26.0443 59.884 26.8755 61.6846 27.2304C62.9902 27.5254 64.2958 27.8998 65.5671 28.365C66.4981 28.6313 67.2842 29.2531 67.7524 30.0936C68.2206 30.9341 68.3326 31.9244 68.0638 32.8467C67.795 33.769 67.1674 34.5477 66.319 35.0116C65.4706 35.4755 64.4709 35.5864 63.54 35.3201C59.5773 34.2763 55.6185 33.2098 51.6634 32.1205C49.5218 31.5306 48.7544 30.4527 48.7773 28.2629C48.7649 27.8825 48.7956 27.5019 48.869 27.1283C49.0407 26.5042 48.7544 26.1979 48.2734 25.8802C38.5309 19.4583 28.7884 13.0289 19.0459 6.59192C18.6007 6.37268 18.2147 6.05142 17.9199 5.6548C17.6251 5.25818 17.4301 4.79763 17.3509 4.31137C17.2456 3.79937 17.2985 3.2678 17.5029 2.78607C17.7072 2.30434 18.0533 1.89483 18.4962 1.61101C18.9814 1.27955 19.5623 1.11356 20.1512 1.13812C20.7401 1.16269 21.3049 1.37647 21.7602 1.74716C24.0508 3.25997 26.3146 4.77277 28.5517 6.28558L49.3729 20.0143C49.5905 20.1618 49.831 20.2753 50.186 20.4795Z" stroke="#D8AA68" stroke-width="2" stroke-miterlimit="10"/>
<path d="M57.6877 11.4251C57.7036 10.0969 58.1159 8.80311 58.8727 7.70668C59.6295 6.61026 60.697 5.76029 61.9406 5.26388C63.1843 4.76748 64.5484 4.64686 65.8611 4.91721C67.1738 5.18756 68.3764 5.8368 69.3172 6.7831C70.2581 7.72941 70.8952 8.93044 71.1482 10.2348C71.4013 11.5393 71.2589 12.8887 70.7391 14.1131C70.2193 15.3375 69.3453 16.382 68.2272 17.1152C67.1092 17.8483 65.7971 18.2371 64.4563 18.2328C63.5583 18.2344 62.6689 18.0587 61.8402 17.7159C61.0115 17.373 60.2601 16.87 59.6299 16.2362C58.9997 15.6024 58.5034 14.8504 58.1699 14.0244C57.8364 13.1983 57.6725 12.3147 57.6877 11.4251Z" stroke="#D8AA68" stroke-width="2" stroke-miterlimit="10"/>
</svg>
