<svg width="39" height="39" viewBox="0 0 39 39" fill="none" xmlns="http://www.w3.org/2000/svg">
<path fill-rule="evenodd" clip-rule="evenodd" d="M13.8279 17.8362V18.9108H24.9761V15.2575H17.794C17.794 13.6106 17.8867 13.1457 18.6507 11.6034C19.1176 10.6614 19.5249 10.2523 20.2323 9.53546C23.691 6.02837 29.804 6.70438 32.737 11.1312C35.6327 15.5008 35.9909 20.9343 33.9039 25.8185C32.9016 28.1648 30.963 30.5916 28.882 32.1742C28.0813 32.7832 27.3816 33.1767 26.4765 33.6311C23.647 35.053 21.8249 35.2428 18.6514 35.2428C17.8303 35.2428 17.3973 35.0843 16.7222 35.0279C16.8377 34.9474 16.7337 35.0075 16.9273 34.9115L18.5826 34.2067C20.4144 33.2674 21.7689 31.9462 22.8529 30.2139C24.4154 27.717 25.083 24.7941 25.083 20.9523C25.083 20.4123 24.9867 20.4713 24.9761 19.9853H13.935V23.6386H21.1169C21.1169 25.8948 20.0975 27.9527 19.0492 29.1945C15.5555 33.3326 9.24119 31.9078 6.40041 28.075C2.61508 22.9672 2.98129 15.3147 6.73628 10.1906C7.34387 9.36136 7.83106 8.85855 8.5484 8.13912C8.90108 7.78557 9.08517 7.57776 9.49295 7.25951C12.3408 5.03675 15.5557 3.65304 19.4016 3.65304C20.4051 3.65304 21.2696 3.86794 22.1889 3.86794V4.08287C21.274 4.15916 19.3789 5.422 18.6204 5.98602C15.1402 8.57381 13.8279 13.1151 13.8279 17.8362ZM0 19.448C0 23.5845 1.25367 27.2218 3.42978 30.5155C7.58569 36.8062 15.8631 40.3938 23.9266 38.4889C27.1668 37.7235 29.4064 36.4562 31.9447 34.4917C32.6111 33.9758 33.2853 33.1909 33.7918 32.6901C34.0197 32.465 34.1595 32.3443 34.3642 32.082C34.7549 31.581 35.0622 31.2026 35.4359 30.6849C37.1244 28.3455 38.4801 24.9953 38.8042 22.0271C38.8819 21.3165 38.8664 20.4733 38.96 19.7048C39.2078 17.6688 38.2583 13.7523 37.4078 11.8221C36.606 10.0032 35.9057 8.82685 34.7168 7.32025C33.9562 6.35662 32.6786 5.01635 31.7312 4.29579C28.4793 1.82265 24.6741 0 20.2593 0C16.5554 0 14.2193 0.35398 11.0035 1.89671C8.97898 2.86814 8.27338 3.55368 6.75265 4.72735C6.28557 5.08799 5.92582 5.50318 5.49323 5.93632C2.60158 8.83329 0 13.6859 0 19.448Z" fill="#C9995B"/>
</svg>
