<svg width="29" height="29" viewBox="0 0 29 29" fill="none" xmlns="http://www.w3.org/2000/svg">
<g clip-path="url(#clip0_5_2017)">
<path d="M14.502 29.0041C10.6573 29.0027 6.97035 27.4752 4.25116 24.7572C1.53196 22.0391 0.0029414 18.3528 5.71227e-06 14.5081C-0.00704388 6.49774 6.51181 -0.0160835 14.5191 2.98306e-05C22.5265 0.0161432 29.0101 6.51788 29.004 14.5101C28.998 22.5023 22.4952 29.0041 14.502 29.0041ZM18.5394 22.0854C18.7237 22.0632 18.9614 22.0421 19.196 22.0038C20.3351 21.8195 21.1216 21.0813 21.8729 20.2918C22.2264 19.9192 22.2334 19.617 21.8668 19.2454C21.0276 18.3954 20.184 17.5502 19.336 16.7096C18.9604 16.337 18.6432 16.343 18.2645 16.7196C17.8093 17.1728 17.3662 17.6361 16.913 18.0893C16.349 18.6522 15.7045 18.7056 15.0458 18.2393C13.4241 17.0849 11.9944 15.6823 10.809 14.0831C10.3277 13.4376 10.377 12.7991 10.946 12.218C11.4213 11.7326 11.9078 11.2592 12.3821 10.7728C12.7215 10.4254 12.7285 10.1011 12.3821 9.75364C11.5362 8.89091 10.6835 8.03421 9.82411 7.18356C9.47063 6.83411 9.15843 6.83108 8.80696 7.17148C8.45549 7.51187 8.102 7.85831 7.78477 8.22892C7.21038 8.88851 6.88631 9.72915 6.86933 10.6036C6.83106 11.6923 7.26511 12.649 7.73844 13.5735C9.47264 16.9593 12.0588 19.5042 15.4698 21.1891C16.4155 21.6523 17.4004 22.0411 18.5354 22.0814L18.5394 22.0854Z" fill="#E8AC5D"/>
</g>
<defs>
<clipPath id="clip0_5_2017">
<rect width="29" height="29" fill="white"/>
</clipPath>
</defs>
</svg>
