<svg width="30" height="29" viewBox="0 0 30 29" fill="none" xmlns="http://www.w3.org/2000/svg">
<g clip-path="url(#clip0_301_101)">
<path d="M23.2399 28.8104C22.9431 28.6938 22.6255 28.6147 22.3548 28.4543C19.9986 27.0575 17.648 25.6511 15.303 24.2349C15.0864 24.1037 14.9333 24.0922 14.7105 24.2266C12.3648 25.6393 10.0152 27.0471 7.66185 28.4501C6.98916 28.8521 6.30085 28.8552 5.76874 28.4324C5.17519 27.9618 5.03253 27.3536 5.20227 26.6205C5.82705 23.9298 6.42164 21.2328 7.04226 18.541C7.09433 18.3119 6.99436 18.213 6.85483 18.0922L0.666307 12.6659C0.0560981 12.1307 -0.132379 11.5205 0.0977506 10.8228C0.306013 10.1928 0.891231 9.81584 1.66805 9.74815C3.84335 9.55863 6.01657 9.34829 8.19083 9.14835C8.74794 9.09733 9.30712 9.0713 9.85693 8.99945C9.93165 8.98234 10.0017 8.94916 10.0623 8.90223C10.1229 8.85529 10.1726 8.79572 10.2079 8.72766C11.3082 6.18131 12.4005 3.63183 13.4849 1.07922C13.7764 0.400286 14.3523 -0.028735 15.0093 0.000421793C15.7383 0.0347851 16.236 0.416947 16.5245 1.0938C17.6085 3.6471 18.7112 6.19623 19.7817 8.75057C19.891 9.00882 20.0774 9.00986 20.2721 9.02756C21.528 9.14107 22.7848 9.24311 24.0407 9.35453C25.5422 9.48782 27.0448 9.61799 28.5454 9.77106C29.2108 9.83874 29.6908 10.2063 29.8991 10.8426C30.1344 11.5434 29.9293 12.1453 29.3784 12.6295C27.3048 14.4462 25.2305 16.2616 23.1555 18.0755C23.0689 18.137 23.0045 18.225 22.972 18.3262C22.9395 18.4273 22.9407 18.5363 22.9754 18.6368C23.6002 21.34 24.218 24.0454 24.8289 26.7528C25.0663 27.8139 24.3166 28.749 23.2399 28.8104Z" fill="#E8AC5D"/>
</g>
<defs>
<clipPath id="clip0_301_101">
<rect width="29.994" height="28.81" fill="white" transform="translate(0.00292969)"/>
</clipPath>
</defs>
</svg>
