<svg width="33" height="33" viewBox="0 0 33 33" fill="none" xmlns="http://www.w3.org/2000/svg">
<g clip-path="url(#clip0_301_98)">
<path d="M16.5023 33.0046C12.1273 33.0031 7.93178 31.2649 4.83752 28.172C1.74327 25.079 0.00334711 20.8842 6.50017e-06 16.5092C-0.00801545 7.39398 7.40999 -0.0183019 16.5218 3.39452e-05C25.6336 0.0183698 33.0115 7.4169 33.0046 16.5115C32.9977 25.6061 25.598 33.0046 16.5023 33.0046ZM21.0966 25.1316C21.3063 25.1064 21.5768 25.0824 21.8438 25.0388C23.1399 24.8291 24.0349 23.9891 24.8898 23.0906C25.2921 22.6666 25.3001 22.3228 24.8829 21.9C23.9279 20.9327 22.968 19.9709 22.0031 19.0143C21.5756 18.5903 21.2146 18.5972 20.7837 19.0258C20.2657 19.5415 19.7615 20.0687 19.2458 20.5844C18.6041 21.225 17.8706 21.2857 17.1211 20.7551C15.2758 19.4415 13.6488 17.8454 12.2999 16.0256C11.7522 15.291 11.8083 14.5645 12.4558 13.9032C12.9967 13.3508 13.5502 12.8122 14.09 12.2587C14.4762 11.8633 14.4842 11.4943 14.09 11.099C13.1274 10.1172 12.1571 9.14238 11.1792 8.1744C10.7769 7.77674 10.4217 7.7733 10.0217 8.16065C9.62176 8.54799 9.21952 8.94221 8.85853 9.36394C8.20491 10.1145 7.83615 11.0711 7.81682 12.0662C7.77327 13.305 8.2672 14.3937 8.80581 15.4457C10.7792 19.2985 13.7221 22.1945 17.6036 24.1117C18.6797 24.6389 19.8005 25.0812 21.092 25.1271L21.0966 25.1316Z" fill="#E8AC5D"/>
</g>
<defs>
<clipPath id="clip0_301_98">
<rect width="33" height="33" fill="white"/>
</clipPath>
</defs>
</svg>
