<svg width="30" height="30" viewBox="0 0 30 30" fill="none" xmlns="http://www.w3.org/2000/svg">
<g clip-path="url(#clip0_166_461)">
<path d="M7.46263 11.3431L6.71636 9.9998L9.70143 8.20875L7.46263 4.47741L4.47755 6.41771L3.58203 5.07442L7.91039 2.53711L11.791 8.65651" fill="white"/>
<path d="M15.3731 29.9996C14.0298 29.9996 12.5373 29.5518 11.0447 28.6563C8.50741 27.1638 5.97009 24.6265 4.0298 21.4921C-0.447817 14.4772 -0.59707 7.76079 3.58203 5.07422L4.3283 6.4175C0.895467 8.50705 1.19397 14.4772 5.07457 20.7459C6.86562 23.7309 9.25368 26.119 11.4925 27.4623C13.1343 28.3578 15.5223 29.1041 17.6119 27.91L20.4477 26.119L18.5074 22.3877L15.5223 24.1787C13.7313 25.2235 11.3432 24.6265 10.2985 22.9847L5.52233 15.2235C4.47756 13.4324 4.92532 11.1936 6.71636 9.99959L7.46263 11.3429C6.41785 11.9399 6.11935 13.2832 6.71636 14.328L11.4925 22.0891C12.0895 23.1339 13.7313 23.4324 14.7761 22.8354L18.9552 20.2981L22.8358 26.4175L18.6567 28.9548C17.6119 29.7011 16.5671 29.9996 15.3731 29.9996ZM21.0447 16.8653L19.7014 16.4175C20.2985 14.7757 19.9999 13.1339 19.1044 11.7906C18.2089 10.2981 16.5671 9.40258 14.9253 9.25332L15.0746 7.76079C17.3134 7.91004 19.2537 9.10407 20.4477 10.8951C21.4925 12.6862 21.791 14.925 21.0447 16.8653Z" fill="white"/>
<path d="M25.2238 17.7611L23.7313 17.3134C24.4776 14.6268 24.0298 11.791 22.5373 9.40293C21.0447 7.01487 18.5074 5.52233 15.5223 5.07457L15.6716 3.58203C18.9552 4.02979 21.9402 5.82084 23.7313 8.5074C25.5223 11.3432 26.1194 14.6268 25.2238 17.7611Z" fill="white"/>
<path d="M28.806 18.6567L27.3135 18.209C28.3582 14.4776 27.612 10.597 25.6717 7.46269C23.5821 4.1791 20.1493 2.08955 16.2687 1.49254L16.4179 0C20.7463 0.597015 24.4776 2.98507 26.8657 6.56716C29.2538 10.1493 30 14.4776 28.806 18.6567Z" fill="white"/>
</g>
<defs>
<clipPath id="clip0_166_461">
<rect width="30" height="30" fill="white"/>
</clipPath>
</defs>
</svg>
