<svg width="72" height="72" viewBox="0 0 72 72" fill="none" xmlns="http://www.w3.org/2000/svg">
<g clip-path="url(#clip0_302_623)">
<path d="M5.67465 11.3474C5.67465 9.37294 5.67465 7.60273 5.67465 5.82117C5.64421 5.04759 5.77437 4.27608 6.05691 3.55529C6.33945 2.83449 6.76826 2.18002 7.3163 1.63312C7.86435 1.08623 8.51976 0.658765 9.24122 0.377671C9.96268 0.0965779 10.7346 -0.0320511 11.5082 -0.000109244H60.5372C61.2997 -0.0236356 62.059 0.109002 62.7684 0.389653C63.4778 0.670304 64.1223 1.09304 64.6623 1.63187C65.2023 2.17071 65.6263 2.81426 65.9084 3.52299C66.1905 4.23171 66.3247 4.99062 66.3027 5.75308C66.3027 7.56869 66.3027 9.37294 66.3027 11.3588H69.7869C71.319 11.3588 71.9773 12.0169 71.9887 13.5261C71.9887 19.6462 71.9887 25.7625 71.9887 31.8751C71.9887 33.4297 71.2963 34.0765 69.7188 34.1446H66.7566C66.6067 34.1672 66.4587 34.2013 66.314 34.2467V35.5517C66.314 43.007 66.314 50.4737 66.314 57.929C66.4145 59.1338 66.1621 60.3417 65.5878 61.4056C65.0134 62.4695 64.1419 63.3433 63.0795 63.9205C62.9074 64.076 62.7715 64.2674 62.6813 64.481C62.5911 64.6947 62.5488 64.9256 62.5574 65.1573C62.7012 66.7012 62.3301 68.2493 61.5019 69.5602C61.0012 70.305 60.3256 70.9157 59.5342 71.3391C58.7428 71.7624 57.8597 71.9854 56.9622 71.9885C55.657 71.9885 54.3518 71.9885 53.058 71.9885C51.553 71.9885 50.1096 71.3908 49.0454 70.3267C47.9812 69.2627 47.3834 67.8196 47.3834 66.3148C47.3834 65.7361 47.3834 65.18 47.3834 64.5105H24.6847C24.6847 65.1346 24.6847 65.7474 24.6847 66.3602C24.6847 67.1053 24.538 67.8431 24.2528 68.5314C23.9676 69.2198 23.5496 69.8453 23.0227 70.3721C22.4957 70.899 21.8702 71.3169 21.1817 71.6021C20.4932 71.8872 19.7553 72.0339 19.0101 72.0339C17.7163 72.0339 16.4111 72.0339 15.1059 72.0339C13.6127 72.016 12.1868 71.4103 11.1373 70.3483C10.0878 69.2861 9.49926 67.8532 9.49937 66.3602C9.47098 66.0431 9.47098 65.7241 9.49937 65.407C9.59787 65.028 9.54974 64.6259 9.36459 64.2809C9.17943 63.9359 8.8709 63.6734 8.50063 63.546C7.59636 63.0503 6.85101 62.3087 6.35087 61.407C5.85074 60.5053 5.61628 59.4804 5.67465 58.451C5.67465 50.8859 5.67465 43.3209 5.67465 35.7559V34.1105C4.53972 34.1105 3.40479 34.1105 2.34931 34.1105C0.680958 34.1105 0 33.4524 0 31.841C0 25.7436 0 19.6689 0 13.6169C0 12.0396 0.65826 11.3474 2.26986 11.3474H5.67465ZM9.49937 41.5772H62.4212V15.2396H9.49937V41.5772ZM9.49937 45.5148C9.49937 45.9233 9.41993 46.2297 9.41993 46.5361C9.41993 50.4396 9.41993 54.3432 9.41993 58.2467C9.41993 59.9602 10.0668 60.607 11.7919 60.607H60.1513C61.9332 60.607 62.546 59.9715 62.5574 58.1559V46.6836C62.5574 46.2978 62.5574 45.9233 62.5006 45.5488L9.49937 45.5148ZM62.5347 11.3474V6.58145C62.5347 4.31195 61.9899 3.77861 59.7541 3.77861H12.2686C11.9134 3.75595 11.557 3.75595 11.2018 3.77861C10.7568 3.79563 10.3348 3.98076 10.0209 4.29666C9.70709 4.61255 9.52476 5.0357 9.51072 5.48074C9.41992 7.39847 9.51072 9.32755 9.51072 11.302L62.5347 11.3474ZM3.83607 15.1942V30.2297H5.58386V15.1942H3.83607ZM68.0958 30.2751V15.2283H66.4048V30.2751H68.0958ZM51.174 64.4651C51.174 65.0098 51.174 65.4297 51.174 65.8609C51.174 67.563 51.8323 68.1985 53.5574 68.2098C54.6242 68.2098 55.691 68.2098 56.7579 68.2098C57.0057 68.2205 57.2532 68.1817 57.4859 68.096C57.7186 68.0102 57.932 67.879 58.1136 67.7101C58.2952 67.5412 58.4415 67.3379 58.5438 67.112C58.6462 66.8861 58.7027 66.6421 58.71 66.3942C58.7667 65.7814 58.71 65.1573 58.71 64.4765L51.174 64.4651ZM13.256 64.4651V65.702C13.256 67.529 13.9256 68.1985 15.7415 68.2098C16.797 68.2098 17.8638 68.2098 18.9306 68.2098C19.3732 68.236 19.8091 68.0919 20.1488 67.8071C20.4886 67.5222 20.7065 67.1182 20.7579 66.6779C20.8172 65.9226 20.8172 65.1637 20.7579 64.4084L13.256 64.4651Z" fill="#D8AA68"/>
<path d="M24.6279 53.1181C24.61 54.2362 24.262 55.3241 23.6277 56.2451C22.9934 57.1661 22.101 57.8792 21.0626 58.2948C20.0243 58.7103 18.8863 58.8098 17.7915 58.5807C16.6968 58.3517 15.6942 57.8042 14.9096 57.0073C14.1251 56.2103 13.5936 55.1993 13.3819 54.1012C13.1702 53.0032 13.2877 51.867 13.7198 50.8356C14.1518 49.8041 14.8791 48.9233 15.8102 48.3038C16.7413 47.6843 17.8348 47.3537 18.9532 47.3535C19.7061 47.3534 20.4515 47.5031 21.146 47.7939C21.8405 48.0847 22.4701 48.5108 22.9983 49.0473C23.5264 49.5838 23.9425 50.22 24.2223 50.9189C24.502 51.6178 24.6399 52.3654 24.6279 53.1181ZM18.9532 54.911C19.3215 54.8998 19.6782 54.7803 19.9788 54.5674C20.2795 54.3545 20.5106 54.0576 20.6433 53.714C20.7761 53.3704 20.8045 52.9953 20.725 52.6356C20.6455 52.276 20.4617 51.9477 20.1966 51.692C19.9315 51.4362 19.5968 51.2644 19.2344 51.1979C18.8721 51.1314 18.4982 51.1733 18.1595 51.3182C17.8208 51.4632 17.5324 51.7048 17.3304 52.0128C17.1284 52.3209 17.0218 52.6816 17.0238 53.05C17.0204 53.3011 17.0685 53.5503 17.1652 53.7821C17.2618 54.014 17.405 54.2235 17.5857 54.3979C17.7665 54.5723 17.9812 54.7078 18.2163 54.796C18.4515 54.8843 18.7023 54.9234 18.9532 54.911Z" fill="#D8AA68"/>
<path d="M58.7327 53.0954C58.7193 54.2145 58.3751 55.3047 57.7434 56.2288C57.1118 57.1528 56.2209 57.8694 55.1829 58.2884C54.1448 58.7074 53.0061 58.8101 51.9098 58.5836C50.8136 58.357 49.8088 57.8114 49.022 57.0152C48.2352 56.2191 47.7014 55.2081 47.488 54.1094C47.2745 53.0107 47.3907 51.8734 47.8222 50.8406C48.2536 49.8078 48.9809 48.9257 49.9126 48.3052C50.8442 47.6847 51.9386 47.3536 53.058 47.3535C53.809 47.3535 54.5525 47.5024 55.2455 47.7918C55.9384 48.0812 56.5671 48.5052 57.0949 49.0393C57.6227 49.5734 58.0393 50.2069 58.3204 50.9032C58.6016 51.5994 58.7417 52.3446 58.7327 53.0954ZM54.9193 53.0046C54.9125 52.6339 54.7957 52.2736 54.5838 51.9693C54.3719 51.665 54.0745 51.4305 53.7291 51.2955C53.3838 51.1604 53.0061 51.1309 52.644 51.2107C52.2818 51.2905 51.9516 51.476 51.695 51.7437C51.4384 52.0114 51.2671 52.3492 51.2028 52.7143C51.1384 53.0795 51.184 53.4555 51.3336 53.7947C51.4832 54.1339 51.7302 54.4211 52.0433 54.6198C52.3564 54.8186 52.7214 54.9199 53.0921 54.911C53.3384 54.9096 53.582 54.8588 53.8083 54.7615C54.0346 54.6642 54.239 54.5224 54.4094 54.3446C54.5799 54.1668 54.7128 53.9565 54.8004 53.7264C54.888 53.4962 54.9284 53.2507 54.9193 53.0046Z" fill="#D8AA68"/>
<path d="M35.9206 54.9333C34.1501 54.9333 32.3796 54.9333 30.5977 54.9333C29.2699 54.9333 28.4641 54.2071 28.4414 53.095C28.4187 51.9829 29.2472 51.1773 30.6204 51.1773C34.2144 51.1773 37.8046 51.1773 41.3909 51.1773C41.6558 51.1405 41.9253 51.1599 42.1822 51.2341C42.439 51.3083 42.6774 51.4357 42.8818 51.6079C43.0862 51.7802 43.2521 51.9936 43.3687 52.2341C43.4853 52.4747 43.55 52.737 43.5587 53.0042C43.5587 54.139 42.7529 54.9219 41.3682 54.9333C39.5523 54.9446 37.7365 54.9333 35.9206 54.9333Z" fill="#D8AA68"/>
<path d="M36.0115 5.67377H49.0178C50.0052 5.67377 50.8223 6.03689 51.0153 6.97873C51.0861 7.65376 50.9086 8.33149 50.5159 8.88512C50.1186 9.25236 49.5925 9.44809 49.0518 9.4298C40.3431 9.4298 31.642 9.4298 22.9484 9.4298C22.6819 9.45711 22.4126 9.4276 22.1583 9.34323C21.904 9.25885 21.6704 9.12153 21.4731 8.94031C21.2758 8.75909 21.1191 8.53809 21.0134 8.2919C20.9078 8.04571 20.8555 7.77992 20.8601 7.51207C20.8693 7.24668 20.9334 6.98607 21.0485 6.74676C21.1636 6.50745 21.3272 6.29465 21.5288 6.12184C21.7305 5.94902 21.9658 5.81996 22.2199 5.74283C22.4741 5.6657 22.7415 5.64219 23.0052 5.67377C27.3406 5.67377 31.676 5.67377 36.0115 5.67377Z" fill="#D8AA68"/>
</g>
<defs>
<clipPath id="clip0_302_623">
<rect width="72" height="72" fill="white"/>
</clipPath>
</defs>
</svg>
