<svg width="16" height="14" viewBox="0 0 16 14" fill="none" xmlns="http://www.w3.org/2000/svg">
<g clip-path="url(#clip0_56_271)">
<path d="M0.0107422 11.8727C1.76174 11.9738 3.34982 11.558 4.75782 10.4707C3.24606 10.3052 2.21621 9.53513 1.67942 8.0894H2.93479L2.94765 8.03795C2.23593 7.7807 1.58252 7.43771 1.11519 6.81688C0.647859 6.19606 0.478933 5.48777 0.421481 4.70059C0.811267 4.93449 1.25925 5.0534 1.71372 5.04359C1.02773 4.51538 0.684731 3.78651 0.50723 2.97018C0.329729 2.15384 0.371746 1.34694 0.78763 0.569199C0.841652 0.620648 0.882811 0.654948 0.920541 0.694393C1.69228 1.51158 2.5352 2.24388 3.51274 2.81154C4.54652 3.41171 5.68689 3.80571 6.87068 3.97173C7.08848 4.0026 7.308 4.02661 7.52752 4.05147C7.57178 4.05413 7.61616 4.05413 7.66043 4.05147C7.64842 3.97344 7.63899 3.90398 7.62698 3.83539C7.4109 2.58087 7.81992 1.5596 8.81718 0.790432C9.22636 0.462586 9.70207 0.227853 10.2112 0.102569C10.7203 -0.0227142 11.2506 -0.0355368 11.7652 0.0649937C12.3891 0.171453 12.955 0.496002 13.3619 0.980795C13.3818 1.0077 13.4091 1.02821 13.4405 1.03979C13.4719 1.05137 13.5059 1.05351 13.5385 1.04596C14.0272 0.950734 14.5015 0.793094 14.95 0.576916C15.136 0.491167 15.323 0.413135 15.5219 0.344536C15.341 1.11628 14.8479 1.65736 14.2605 2.14527C14.8414 2.05214 15.413 1.9081 15.9687 1.71481L15.9892 1.74311C15.9361 1.81599 15.8889 1.89317 15.8298 1.96091C15.4439 2.4008 15.058 2.84155 14.6653 3.27544C14.5909 3.35295 14.5491 3.45611 14.5487 3.56356C14.4946 5.15678 14.1859 6.69341 13.4897 8.13742C12.3869 10.4261 10.6282 11.9876 8.22208 12.797C6.78805 13.2861 5.26289 13.4487 3.75798 13.2729C2.80858 13.1486 1.88748 12.8626 1.03459 12.4275C0.721603 12.274 0.418051 12.1025 0.109354 11.9378C0.0750541 11.919 0.0433269 11.8932 0.0107422 11.8727Z" fill="black"/>
</g>
<defs>
<clipPath id="clip0_56_271">
<rect width="15.9785" height="13.34" fill="white" transform="translate(0.0107422)"/>
</clipPath>
</defs>
</svg>
