<svg width="19" height="11" viewBox="0 0 19 11" fill="none" xmlns="http://www.w3.org/2000/svg">
<g clip-path="url(#clip0_56_262)">
<path d="M7.77371 0C7.80459 0.00725005 7.83633 0.0101835 7.86801 0.00871655C8.62873 0.00871655 9.38865 0.00871655 10.1486 0.00871655C10.2843 0.00871511 10.4186 0.0355171 10.5439 0.0875835C10.6692 0.13965 10.783 0.215955 10.8787 0.312116C10.9744 0.408277 11.0502 0.522401 11.1017 0.647932C11.1532 0.773464 11.1793 0.90793 11.1787 1.04361C11.1787 1.55234 11.1787 2.06107 11.1787 2.5698C11.1787 3.16517 11.1787 3.76 11.1787 4.35431C11.175 4.55967 11.2181 4.76318 11.3047 4.94942C11.4331 5.21329 11.6645 5.29016 11.922 5.15465C12.0678 5.07218 12.1968 4.96305 12.3024 4.83293C12.541 4.54515 12.7457 4.23087 12.9125 3.8963C13.1811 3.39153 13.4482 2.88597 13.7184 2.3812C13.9886 1.87644 14.2596 1.38593 14.5259 0.885919C14.5864 0.757811 14.6835 0.650477 14.8049 0.577434C14.9263 0.504392 15.0666 0.468907 15.2081 0.475448C16.2232 0.475448 17.2391 0.475448 18.2542 0.475448C18.3758 0.477334 18.4968 0.494913 18.6139 0.527748C18.7003 0.547216 18.7786 0.592796 18.8381 0.658294C18.8976 0.723792 18.9356 0.806033 18.9468 0.893843C18.969 1.05415 18.9513 1.21747 18.8952 1.36929C18.7676 1.75081 18.5804 2.10972 18.3406 2.43271C18.0125 2.89231 17.671 3.3424 17.3318 3.79408C16.9142 4.34877 16.4903 4.8987 16.0742 5.45815C15.9358 5.63911 15.8675 5.86408 15.8821 6.09148C15.8967 6.31887 15.9931 6.53329 16.1535 6.69511C16.7008 7.26723 17.2481 7.83935 17.7954 8.41147C18.0672 8.69437 18.3461 8.97092 18.6147 9.25619C18.7886 9.43161 18.912 9.65057 18.9721 9.89012C19.0458 10.2071 18.942 10.463 18.675 10.6183C18.54 10.693 18.3916 10.7404 18.2383 10.7578L18.0798 10.7808H15.0219C15.0082 10.776 14.9942 10.772 14.9799 10.7689C14.7815 10.7408 14.5963 10.6529 14.449 10.5169C14.3095 10.3893 14.1725 10.2578 14.0346 10.1278C13.4664 9.59534 12.9006 9.06046 12.3309 8.52954C12.2335 8.43786 12.1112 8.37685 11.9794 8.35409C11.8476 8.33133 11.712 8.34783 11.5894 8.40153C11.4669 8.45524 11.3629 8.54378 11.2903 8.65615C11.2177 8.76851 11.1797 8.89975 11.1811 9.03352C11.1811 9.3806 11.1811 9.72767 11.1811 10.0748C11.1849 10.2112 11.1473 10.3455 11.0733 10.4602C10.9994 10.5749 10.8925 10.6646 10.7667 10.7174C10.7045 10.7419 10.6407 10.762 10.5757 10.7776H8.52334C8.50511 10.7776 8.48689 10.7689 8.46866 10.7673C8.12572 10.7448 7.78744 10.6757 7.46309 10.5621C6.81707 10.3314 6.21438 9.99393 5.68016 9.56364C5.08211 9.09144 4.53287 8.56051 4.04065 7.97882C3.34121 7.15347 2.70821 6.27405 2.14757 5.34879C1.73869 4.68845 1.35991 4.01252 1.01125 3.32101C0.630904 2.58459 0.295882 1.82563 0.00805664 1.04836L0.00805664 0.857392C0.0115299 0.853009 0.014457 0.848219 0.0167732 0.843128C0.0418591 0.734808 0.104115 0.638705 0.192716 0.57153C0.281318 0.504356 0.39066 0.470358 0.501731 0.475448H0.94152C1.71809 0.475448 2.49544 0.475448 3.27201 0.475448C3.40306 0.469162 3.53271 0.504795 3.64214 0.577179C3.75157 0.649562 3.83509 0.75493 3.88058 0.877995C4.13891 1.50559 4.42022 2.12367 4.7356 2.72353C5.16154 3.53405 5.64233 4.31455 6.17462 5.05956C6.23343 5.14507 6.31209 5.21504 6.40387 5.26349C6.49565 5.31193 6.5978 5.33739 6.70158 5.3377C6.79476 5.34045 6.88752 5.3241 6.97415 5.28965C7.06077 5.2552 7.13943 5.20338 7.20527 5.13739C7.27112 5.0714 7.32276 4.99262 7.35701 4.90592C7.39127 4.81922 7.40741 4.72642 7.40445 4.63324C7.39177 3.85589 7.37671 3.07932 7.36562 2.30275C7.37111 2.07361 7.35145 1.84455 7.30698 1.61969C7.1794 1.07451 6.79984 0.73853 6.23088 0.766264C6.21677 0.76593 6.20272 0.764338 6.18889 0.76151C6.35524 0.538571 6.56847 0.354837 6.81354 0.223263C7.05862 0.0916881 7.32958 0.0154761 7.60731 0L7.43456 0" fill="black"/>
</g>
<defs>
<clipPath id="clip0_56_262">
<rect width="18.9839" height="10.78" fill="white" transform="translate(0.00805664)"/>
</clipPath>
</defs>
</svg>
